<svg xmlns="http://www.w3.org/2000/svg" width="28" height="28" viewBox="0 0 28 28" fill="none">
  <path d="M15.8771 23.2138C16.4786 23.2138 17.0555 22.9748 17.4809 22.5494C17.9062 22.1241 18.1452 21.5472 18.1452 20.9456C18.1452 20.3441 17.9062 19.7672 17.4809 19.3418C17.0555 18.9164 16.4786 18.6775 15.8771 18.6775C15.2755 18.6775 14.6986 18.9164 14.2732 19.3418C13.8479 19.7672 13.6089 20.3441 13.6089 20.9456C13.6089 21.5472 13.8479 22.1241 14.2732 22.5494C14.6986 22.9748 15.2755 23.2138 15.8771 23.2138ZM7.93855 23.2138C8.5401 23.2138 9.11701 22.9748 9.54237 22.5494C9.96773 22.1241 10.2067 21.5472 10.2067 20.9456C10.2067 20.3441 9.96773 19.7672 9.54237 19.3418C9.11701 18.9164 8.5401 18.6775 7.93855 18.6775C7.337 18.6775 6.76009 18.9164 6.33473 19.3418C5.90937 19.7672 5.67041 20.3441 5.67041 20.9456C5.67041 21.5472 5.90937 22.1241 6.33473 22.5494C6.76009 22.9748 7.337 23.2138 7.93855 23.2138ZM22.7246 7.24942C23.0077 7.24029 23.2762 7.12141 23.4732 6.91792C23.6702 6.71442 23.7804 6.44227 23.7804 6.15901C23.7804 5.87576 23.6702 5.60361 23.4732 5.40011C23.2762 5.19662 23.0077 5.07773 22.7246 5.0686H21.4193C20.3963 5.0686 19.5118 5.77853 19.2895 6.77652L17.8685 13.175C17.6462 14.1729 16.7616 14.8829 15.7387 14.8829H7.21955L5.58422 8.33927H16.1821C16.4626 8.32647 16.7273 8.20606 16.9212 8.00307C17.1151 7.80009 17.2234 7.53016 17.2234 7.24942C17.2234 6.96869 17.1151 6.69876 16.9212 6.49577C16.7273 6.29279 16.4626 6.17238 16.1821 6.15958H5.58422C5.25269 6.15948 4.9255 6.23497 4.62753 6.38031C4.32956 6.52565 4.06864 6.73701 3.86462 6.99832C3.6606 7.25964 3.51884 7.56403 3.45012 7.88836C3.3814 8.21268 3.38753 8.54841 3.46804 8.87001L5.10337 15.4113C5.22126 15.8833 5.49359 16.3024 5.87704 16.6018C6.2605 16.9012 6.73305 17.0638 7.21955 17.0637H15.7387C16.7312 17.0638 17.6942 16.7254 18.4684 16.1044C19.2426 15.4833 19.7819 14.6168 19.9971 13.6479L21.4193 7.24942H22.7246Z" fill="white"/>
</svg>