<svg xmlns="http://www.w3.org/2000/svg" width="14" height="14" viewBox="0 0 14 14" fill="none">
  <path d="M3.0472 11.6762H3.10254L5.66678 11.4425C5.94767 11.4146 6.21039 11.2908 6.41083 11.092L11.9452 5.5577C12.16 5.33078 12.276 5.02795 12.268 4.71558C12.2599 4.40322 12.1283 4.10679 11.9021 3.89126L10.2172 2.20636C9.99732 1.99981 9.70916 1.88129 9.40757 1.87335C9.10597 1.86541 8.81198 1.96861 8.58152 2.16332L3.0472 7.69764C2.84843 7.89809 2.72467 8.1608 2.69669 8.4417L2.43227 11.0059C2.42399 11.096 2.43568 11.1868 2.4665 11.2718C2.49732 11.3569 2.54653 11.434 2.6106 11.4979C2.66806 11.5549 2.7362 11.6 2.81112 11.6306C2.88604 11.6612 2.96627 11.6767 3.0472 11.6762ZM9.36247 3.06726L11.0412 4.746L9.81137 5.94511L8.16337 4.29711L9.36247 3.06726ZM3.88964 8.54624L7.35167 5.10881L9.01197 6.76911L5.56839 10.2127L3.72361 10.3849L3.88964 8.54624Z" fill="#A2A6B0"/>
</svg>