<svg xmlns="http://www.w3.org/2000/svg" width="30" height="31" viewBox="0 0 30 31" fill="none">
  <path d="M14.9121 2.8606C8.10683 2.8606 2.57031 8.39712 2.57031 15.2024V20.3156C2.57031 21.5794 3.67737 22.6074 5.03867 22.6074H6.27284C6.60017 22.6074 6.91409 22.4774 7.14554 22.246C7.37699 22.0145 7.50702 21.7006 7.50702 21.3733V15.0259C7.50702 14.6986 7.37699 14.3846 7.14554 14.1532C6.91409 13.9217 6.60017 13.7917 6.27284 13.7917H5.15221C5.83841 9.01544 9.94823 5.32895 14.9121 5.32895C19.8759 5.32895 23.9858 9.01544 24.672 13.7917H23.5513C23.224 13.7917 22.9101 13.9217 22.6786 14.1532C22.4472 14.3846 22.3172 14.6986 22.3172 15.0259V22.6074C22.3172 23.9687 21.2101 25.0758 19.8488 25.0758H17.3804V23.8416H12.4437V27.5441H19.8488C22.5714 27.5441 24.7855 25.33 24.7855 22.6074C26.1468 22.6074 27.2539 21.5794 27.2539 20.3156V15.2024C27.2539 8.39712 21.7173 2.8606 14.9121 2.8606Z" fill="white"/>
</svg>