<svg xmlns="http://www.w3.org/2000/svg" width="30" height="31" viewBox="0 0 30 31" fill="none">
  <g clip-path="url(#clip0_1543_659)">
    <path d="M17.82 28.1165L15 30.9365L12.18 28.1165C6.6375 26.8365 2.5 21.8665 2.5 15.9365C2.5 9.03652 8.1 3.43652 15 3.43652C21.9 3.43652 27.5 9.03652 27.5 15.9365C27.5 21.8665 23.3625 26.8365 17.82 28.1165ZM7.52875 20.2065C9.36375 22.944 12.1187 24.6865 15.2 24.6865C18.28 24.6865 21.0362 22.9453 22.87 20.2065C20.7897 18.2623 18.0474 17.1825 15.2 17.1865C12.3521 17.1822 9.60939 18.262 7.52875 20.2065ZM15 14.6865C15.9946 14.6865 16.9484 14.2914 17.6517 13.5882C18.3549 12.8849 18.75 11.9311 18.75 10.9365C18.75 9.94196 18.3549 8.98813 17.6517 8.28487C16.9484 7.58161 15.9946 7.18652 15 7.18652C14.0054 7.18652 13.0516 7.58161 12.3483 8.28487C11.6451 8.98813 11.25 9.94196 11.25 10.9365C11.25 11.9311 11.6451 12.8849 12.3483 13.5882C13.0516 14.2914 14.0054 14.6865 15 14.6865Z" fill="white"/>
  </g>
  <defs>
    <clipPath id="clip0_1543_659">
      <rect width="30" height="30" fill="white" transform="translate(0 0.936523)"/>
    </clipPath>
  </defs>
</svg>