<svg width="19" height="17" viewBox="0 0 19 17" fill="none" xmlns="http://www.w3.org/2000/svg">
<g id="Group 65">
<path id="Vector" d="M11.4574 16.8334C12.01 16.8334 12.5399 16.6139 12.9306 16.2232C13.3213 15.8325 13.5408 15.3026 13.5408 14.75C13.5408 14.1975 13.3213 13.6676 12.9306 13.2769C12.5399 12.8862 12.01 12.6667 11.4574 12.6667C10.9049 12.6667 10.375 12.8862 9.9843 13.2769C9.59359 13.6676 9.3741 14.1975 9.3741 14.75C9.3741 15.3026 9.59359 15.8325 9.9843 16.2232C10.375 16.6139 10.9049 16.8334 11.4574 16.8334ZM4.16577 16.8334C4.7183 16.8334 5.24821 16.6139 5.63891 16.2232C6.02961 15.8325 6.2491 15.3026 6.2491 14.75C6.2491 14.1975 6.02961 13.6676 5.63891 13.2769C5.24821 12.8862 4.7183 12.6667 4.16577 12.6667C3.61323 12.6667 3.08333 12.8862 2.69263 13.2769C2.30193 13.6676 2.08243 14.1975 2.08243 14.75C2.08243 15.3026 2.30193 15.8325 2.69263 16.2232C3.08333 16.6139 3.61323 16.8334 4.16577 16.8334ZM17.747 2.16981C18.0071 2.16142 18.2536 2.05223 18.4346 1.86531C18.6156 1.6784 18.7168 1.42842 18.7168 1.16825C18.7168 0.908074 18.6156 0.658098 18.4346 0.471184C18.2536 0.284271 18.0071 0.175074 17.747 0.166687H16.5481C15.6085 0.166687 14.796 0.81877 14.5918 1.73544L13.2866 7.61252C13.0824 8.52919 12.2699 9.18127 11.3304 9.18127H3.50535L2.00327 3.17085H11.7376C11.9952 3.1591 12.2384 3.0485 12.4165 2.86205C12.5946 2.67561 12.694 2.42767 12.694 2.16981C12.694 1.91195 12.5946 1.66401 12.4165 1.47757C12.2384 1.29113 11.9952 1.18052 11.7376 1.16877H2.00327C1.69875 1.16868 1.39823 1.23802 1.12453 1.37151C0.85084 1.50501 0.611185 1.69915 0.423786 1.93917C0.236387 2.17919 0.106178 2.45878 0.0430584 2.75668C-0.0200634 3.05458 -0.0144329 3.36295 0.0595188 3.65835L1.5616 9.66669C1.66989 10.1002 1.92003 10.4851 2.27224 10.7601C2.62444 11.0351 3.05849 11.1845 3.50535 11.1844H11.3304C12.242 11.1845 13.1265 10.8737 13.8376 10.3032C14.5488 9.73281 15.0441 8.93687 15.2418 8.04689L16.5481 2.16981H17.747Z" fill="#0156FF"/>
</g>
</svg>
