<svg width="20" height="20" viewBox="0 0 20 20" fill="none" xmlns="http://www.w3.org/2000/svg">
<g id="ant-design:instagram-filled">
<path id="Vector" d="M9.9996 7.39645C8.56601 7.39645 7.39609 8.56638 7.39609 9.99997C7.39609 11.4336 8.56601 12.6035 9.9996 12.6035C11.4332 12.6035 12.6031 11.4336 12.6031 9.99997C12.6031 8.56638 11.4332 7.39645 9.9996 7.39645ZM17.8082 9.99997C17.8082 8.92184 17.818 7.85349 17.7574 6.77731C17.6969 5.52731 17.4117 4.41794 16.4977 3.50388C15.5816 2.58786 14.4742 2.30466 13.2242 2.24411C12.1461 2.18356 11.0777 2.19333 10.0016 2.19333C8.92343 2.19333 7.85507 2.18356 6.7789 2.24411C5.5289 2.30466 4.41953 2.58981 3.50546 3.50388C2.58945 4.41989 2.30624 5.52731 2.2457 6.77731C2.18515 7.85544 2.19492 8.9238 2.19492 9.99997C2.19492 11.0761 2.18515 12.1465 2.2457 13.2226C2.30624 14.4726 2.5914 15.582 3.50546 16.4961C4.42148 17.4121 5.5289 17.6953 6.7789 17.7558C7.85703 17.8164 8.92539 17.8066 10.0016 17.8066C11.0797 17.8066 12.148 17.8164 13.2242 17.7558C14.4742 17.6953 15.5836 17.4101 16.4977 16.4961C17.4137 15.58 17.6969 14.4726 17.7574 13.2226C17.8199 12.1465 17.8082 11.0781 17.8082 9.99997ZM9.9996 14.0058C7.78281 14.0058 5.99375 12.2168 5.99375 9.99997C5.99375 7.78317 7.78281 5.99411 9.9996 5.99411C12.2164 5.99411 14.0055 7.78317 14.0055 9.99997C14.0055 12.2168 12.2164 14.0058 9.9996 14.0058ZM14.1695 6.76559C13.6519 6.76559 13.234 6.34763 13.234 5.83005C13.234 5.31247 13.6519 4.8945 14.1695 4.8945C14.6871 4.8945 15.1051 5.31247 15.1051 5.83005C15.1052 5.95295 15.0811 6.07467 15.0342 6.18825C14.9872 6.30182 14.9183 6.40502 14.8314 6.49192C14.7445 6.57883 14.6413 6.64773 14.5277 6.69469C14.4142 6.74166 14.2924 6.76575 14.1695 6.76559Z" fill="white"/>
</g>
</svg>
