<svg xmlns="http://www.w3.org/2000/svg" width="26" height="27" viewBox="0 0 26 27" fill="none">
  <g clip-path="url(#clip0_1543_681)">
    <path d="M25.2047 1.46293C25.1293 1.27509 24.9844 1.12356 24.8001 1.03987C24.6158 0.956173 24.4063 0.946753 24.2152 1.01357C24.0242 1.08038 23.8662 1.21829 23.7742 1.39859C23.6823 1.5789 23.6633 1.78772 23.7214 1.98163C24.9291 5.45263 22.5319 8.04483 20.7041 9.43322L19.9657 8.37503C19.7174 8.02013 19.1623 7.72503 18.7307 7.71983L14.5863 7.73803C14.08 7.75332 13.5873 7.90513 13.1602 8.17743L0.948006 16.7405C0.663949 16.9404 0.470671 17.2447 0.410489 17.5868C0.350307 17.9289 0.428126 18.2809 0.626906 18.5657L6.17661 26.5061C6.59261 27.0976 7.25691 27.0261 7.84971 26.6127L20.0619 18.0483C20.4129 17.8 20.8185 17.2644 20.9615 16.8549L22.2589 12.7664C22.4019 12.3582 22.3148 11.7355 22.0665 11.3806L21.6167 10.7358C24.0711 8.85473 26.6191 5.53063 25.2047 1.46293ZM19.5224 13.6283C19.2974 13.7858 19.0436 13.8974 18.7755 13.9568C18.5074 14.0161 18.2302 14.0221 17.9597 13.9743C17.6893 13.9265 17.431 13.8258 17.1994 13.6782C16.9679 13.5305 16.7678 13.3386 16.6104 13.1135C16.2918 12.6581 16.1669 12.0948 16.2632 11.5474C16.3595 11 16.669 10.5131 17.1239 10.1937C17.4805 9.94389 17.9063 9.81171 18.3416 9.81567C18.777 9.81963 19.2003 9.95954 19.5523 10.2158C19.1987 10.429 18.9556 10.5538 18.9101 10.5733C18.749 10.6502 18.6187 10.7795 18.5406 10.94C18.4626 11.1006 18.4414 11.2829 18.4805 11.4571C18.5196 11.6313 18.6168 11.787 18.756 11.8988C18.8952 12.0105 19.0683 12.0717 19.2468 12.0722C19.3586 12.0722 19.473 12.0462 19.5809 11.9955C19.8331 11.8759 20.1035 11.7342 20.3856 11.5665C20.4505 11.9566 20.4039 12.3571 20.2512 12.7218C20.0985 13.0866 19.8459 13.4008 19.5224 13.6283Z" fill="white"/>
  </g>
  <defs>
    <clipPath id="clip0_1543_681">
      <rect width="26" height="26" fill="white" transform="translate(0 0.936523)"/>
    </clipPath>
  </defs>
</svg>